<?xml version="1.0" encoding="UTF-8"?>
<svg version="1.1" xmlns="http://www.w3.org/2000/svg" width="800" height="800">
<path d="M0 0 C1.9620412 0.0002824 3.92408251 0.00012311 5.88612366 -0.0004425 C11.18909071 -0.00072842 16.49203496 0.00513495 21.79499674 0.01213145 C27.34566029 0.01839935 32.89632442 0.01897151 38.44699097 0.02015686 C48.94749726 0.02326006 59.4479931 0.03145979 69.94849479 0.04150635 C84.14522739 0.05479337 98.34196286 0.06017557 112.5387001 0.06600857 C134.89153055 0.07540038 157.24433894 0.09532605 179.59716797 0.11352539 C179.59716797 35.09352539 179.59716797 70.07352539 179.59716797 106.11352539 C158.56546875 106.16959961 158.56546875 106.16959961 137.10888672 106.22680664 C128.22671537 106.25708218 119.34455707 106.28810573 110.46240234 106.32250977 C96.36402571 106.37697907 82.26568533 106.42839287 68.16723633 106.45996094 C57.89896748 106.48296685 47.63079389 106.51639396 37.36260062 106.56222695 C31.9279193 106.58612408 26.49333211 106.60487589 21.05859947 106.6111393 C15.93763476 106.61720598 10.81691081 106.63726312 5.69603539 106.6678009 C3.82204361 106.67655575 1.94802033 106.68030903 0.07400894 106.67853355 C-16.77004585 106.66761903 -31.50179533 108.7860492 -44.30126953 120.81665039 C-56.18533168 133.80517928 -59.07280665 147.97975503 -58.53466797 164.88793945 C-57.85082345 176.43224803 -50.87664337 188.4513818 -42.40283203 196.11352539 C-33.55740516 202.75439972 -23.3468739 208.19395198 -12.10040283 208.27174377 C-11.02630661 208.28153259 -9.95221039 208.29132141 -8.8455658 208.30140686 C-7.67240311 208.30716232 -6.49924042 208.31291779 -5.29052734 208.31884766 C-4.05123978 208.32874725 -2.81195221 208.33864685 -1.53511047 208.34884644 C1.85916735 208.37501408 5.2534219 208.39688441 8.64773846 208.41684842 C12.19651999 208.43873565 15.74525908 208.46611094 19.29400635 208.49290466 C26.01225889 208.54279456 32.73053505 208.58774711 39.4488337 208.63092703 C47.09814386 208.68033107 54.74741142 208.73523745 62.39668036 208.79060662 C78.13013836 208.90436982 93.86363547 209.0104948 109.59716797 209.11352539 C109.59716797 220.99352539 109.59716797 232.87352539 109.59716797 245.11352539 C93.07124714 245.20417581 76.5455419 245.27770955 60.01944065 245.32077408 C52.34433081 245.34131021 44.66938758 245.36925714 36.99438477 245.4152832 C30.29689645 245.45542773 23.59952891 245.48102304 16.9019236 245.48987937 C13.36274771 245.49504798 9.82391706 245.50700332 6.28485298 245.53644562 C-23.70658439 245.77617765 -48.80893218 240.9243812 -70.84033203 219.30102539 C-76.86537898 213.17012964 -81.41471101 206.75984988 -85.40283203 199.11352539 C-85.88107422 198.20086914 -86.35931641 197.28821289 -86.85205078 196.34790039 C-96.74141683 176.03460797 -98.72610207 151.52428879 -91.70263672 129.96411133 C-83.40550002 106.42946573 -67.85936735 88.91239244 -45.53930664 77.84667969 C-35.11210476 72.91621786 -24.05806367 69.98436111 -12.49319458 69.99327087 C-11.822449 69.99241645 -11.15170341 69.99156202 -10.46063221 69.99068171 C-8.2266568 69.98904252 -5.99275749 69.99452256 -3.75878906 70 C-2.15201316 70.00028223 -0.54523713 70.00012343 1.0615387 69.9995575 C5.4143617 69.99927094 9.76715707 70.00514482 14.11997366 70.01213145 C18.67235772 70.01838853 23.22474243 70.01897065 27.77713013 70.02015686 C36.39364125 70.02326323 45.01013967 70.03146727 53.62664521 70.04150635 C63.43796232 70.05268904 73.24928005 70.05818337 83.06060195 70.06320179 C103.23946596 70.07365045 123.41831254 70.09198732 143.59716797 70.11352539 C143.59716797 58.89352539 143.59716797 47.67352539 143.59716797 36.11352539 C122.78576565 36.17657758 101.9745234 36.25191002 81.16325569 36.3492403 C71.49849672 36.39405375 61.83377341 36.43350105 52.16894531 36.45996094 C43.73726172 36.48305878 35.30569237 36.51658637 26.87409961 36.56222695 C22.41673249 36.58600155 17.95947739 36.60483287 13.50204849 36.6111393 C9.29128143 36.61726246 5.08080043 36.63751663 0.87014008 36.6678009 C-0.66065851 36.67646702 -2.19149467 36.68032802 -3.72231674 36.67853355 C-17.77997357 36.66727579 -32.12443779 38.02958018 -45.46533203 42.73852539 C-46.19373291 42.98940918 -46.92213379 43.24029297 -47.67260742 43.4987793 C-64.80632396 49.67392189 -79.20421426 59.6886197 -92.40283203 72.11352539 C-93.00611328 72.65235352 -93.60939453 73.19118164 -94.23095703 73.74633789 C-115.20916842 93.2541139 -126.42602277 123.78995331 -127.71923828 151.87915039 C-128.09214653 165.06905312 -126.78949864 177.36903853 -123.40283203 190.11352539 C-123.23154785 190.77610352 -123.06026367 191.43868164 -122.88378906 192.12133789 C-115.16794107 220.93902954 -94.85486232 246.46116845 -69.22119141 261.38354492 C-48.1937052 273.34457735 -27.51053494 278.57371025 -3.41821289 278.54589844 C-1.79995491 278.55494603 -0.1817037 278.5652804 1.4365387 278.57678223 C5.77012338 278.60402719 10.10357695 278.61359177 14.43723607 278.6196363 C18.98827371 278.62910593 23.5392166 278.65531523 28.0901947 278.67964172 C36.68152313 278.7230766 45.27283293 278.75176414 53.86423725 278.77496511 C63.6565198 278.80214118 73.44870593 278.84604429 83.24091923 278.89125383 C103.35963024 278.98377002 123.47833231 279.0533938 143.59716797 279.11352539 C143.59716797 256.01352539 143.59716797 232.91352539 143.59716797 209.11352539 C155.47716797 209.11352539 167.35716797 209.11352539 179.59716797 209.11352539 C179.59716797 244.09352539 179.59716797 279.07352539 179.59716797 315.11352539 C129.70648972 315.23443449 129.70648972 315.23443449 108.72021484 315.26000977 C94.25818675 315.27777622 79.79621128 315.29860592 65.33422852 315.33984375 C54.79932068 315.36986919 44.26445575 315.38912944 33.72950631 315.39579087 C28.15815529 315.39968097 22.58692693 315.40873864 17.01561546 315.43071556 C11.75680042 315.45128899 6.49815696 315.45731767 1.2393055 315.45284843 C-0.67650413 315.45366441 -2.59232033 315.45950446 -4.50809479 315.47114182 C-44.27633536 315.70057978 -81.7082798 302.98769953 -111.40283203 276.11352539 C-112.26005859 275.3877832 -113.11728516 274.66204102 -114.00048828 273.91430664 C-143.5441071 248.58451618 -161.3934688 209.62449098 -164.40283203 171.11352539 C-165.67995059 141.53970838 -161.53401198 113.8286846 -148.40283203 87.11352539 C-147.85884766 85.99719727 -147.31486328 84.88086914 -146.75439453 83.73071289 C-127.60653198 46.42384454 -93.64793501 19.41503593 -54.02514648 6.62402344 C-45.9062345 4.12696634 -37.83145089 2.21015215 -29.40283203 1.11352539 C-28.78898714 1.02742288 -28.17514225 0.94132036 -27.542696 0.85260868 C-18.39731774 -0.25765937 -9.19564649 -0.01856763 0 0 Z " fill="#000000" transform="translate(392.40283203125,91.886474609375)"/>
<path d="M0 0 C17.82 0 35.64 0 54 0 C54 2.64 54 5.28 54 8 C53.37351562 8.18175781 52.74703125 8.36351562 52.1015625 8.55078125 C51.28429687 8.80214844 50.46703125 9.05351562 49.625 9.3125 C48.40683594 9.67794922 48.40683594 9.67794922 47.1640625 10.05078125 C44.66815371 10.91368185 44.66815371 10.91368185 43 14 C42.81642911 16.47755487 42.74750539 18.84064208 42.77294922 21.31713867 C42.77265717 22.05884811 42.77236511 22.80055756 42.77206421 23.56474304 C42.77345736 26.01593735 42.78901773 28.46682755 42.8046875 30.91796875 C42.80841768 32.61761814 42.81126463 34.31726969 42.81326294 36.016922 C42.82089898 40.49024391 42.84054721 44.96343594 42.8626709 49.43670654 C42.88312996 54.00140628 42.89226478 58.566127 42.90234375 63.13085938 C42.92379313 72.08729665 42.95792873 81.04363752 43 90 C44.1060555 88.73818466 45.21178606 87.47608449 46.31738281 86.21386719 C47.24106659 85.15966583 47.24106659 85.15966583 48.18341064 84.08416748 C50.248858 81.71448596 52.28833417 79.32389559 54.32348633 76.92822266 C59.60603166 70.7135698 65.02053408 64.64698362 70.5546875 58.65625 C74.71504527 54.13701153 78.72685535 49.49821391 82.70703125 44.8203125 C83.72106456 43.62996156 84.73539715 42.43986553 85.75 41.25 C86.52089966 40.34580322 86.52089966 40.34580322 87.30737305 39.42333984 C90.70822189 35.4541822 94.19199645 31.57842931 97.75 27.75 C106.33064247 19.79666584 106.33064247 19.79666584 111 10 C107.04 9.34 103.08 8.68 99 8 C99 5.36 99 2.72 99 0 C118.47 0 137.94 0 158 0 C158 2.64 158 5.28 158 8 C157.23816406 8.08636719 156.47632813 8.17273438 155.69140625 8.26171875 C145.39105276 9.66338982 138.55021539 12.50333967 131.9453125 20.62890625 C129.57196813 23.52171756 127.04267019 26.25719043 124.5 29 C120.87764372 32.93148515 117.31037797 36.90217793 113.80859375 40.94140625 C110.7222052 44.45442302 107.55371222 47.89299818 104.40234375 51.34765625 C102.43058156 53.52460996 100.48634663 55.71838674 98.5625 57.9375 C95.6011649 61.3468858 92.55847514 64.6779431 89.5 68 C85.86773945 71.94571368 82.2829662 75.92457183 78.76953125 79.9765625 C75.22749258 84.02684072 71.60747906 88.00805038 68 92 C69.56232021 95.67956291 71.83584082 98.16515793 74.5625 101.0625 C77.9953483 104.75363459 81.27938092 108.50410259 84.4375 112.4375 C87.65943101 116.43223986 91.00655495 120.24554349 94.5 124 C98.78955113 128.61004336 102.80410672 133.37782956 106.75390625 138.28515625 C109.0883059 141.10673495 111.51990598 143.80590712 114 146.5 C117.27418423 150.05670244 120.40642433 153.67161811 123.4375 157.4375 C137.45439233 175.60748379 137.45439233 175.60748379 157 186 C157 188.64 157 191.28 157 194 C151.45013587 194.2235999 145.90292662 194.38629684 140.34960938 194.49438477 C138.46372787 194.53946367 136.57815779 194.60074972 134.69335938 194.67895508 C119.0884615 195.30991422 119.0884615 195.30991422 114.12036133 192.19384766 C112.06769093 189.90556934 110.53691321 187.65601692 109 185 C108.08503198 183.82381282 107.15291231 182.66063651 106.19921875 181.515625 C105.35964287 180.42888426 104.52241965 179.34032209 103.6875 178.25 C100.06136145 173.57258599 96.35129673 168.99375212 92.5 164.5 C88.71795589 160.08436776 85.06732224 155.59081228 81.5 151 C77.42895569 145.76175352 73.2265902 140.66219038 68.91845703 135.61767578 C65.52000804 131.6334977 62.22656359 127.57902473 58.97265625 123.4765625 C54.50816576 117.87163781 49.95308429 112.33824381 45.36401367 106.83496094 C44.58388916 105.89942383 43.80376465 104.96388672 43 104 C42.93054658 113.9876962 42.87721247 123.97533512 42.84456348 133.96322346 C42.82889506 138.6008131 42.80763542 143.23823775 42.77368164 147.87573242 C42.74113 152.34962273 42.72315585 156.82335417 42.71536827 161.29735374 C42.7098172 163.00583587 42.6989775 164.71430912 42.68280983 166.42272377 C42.66109096 168.81236312 42.65803069 171.20134258 42.65942383 173.59106445 C42.648638 174.30028549 42.63785217 175.00950653 42.6267395 175.74021912 C42.6450595 178.63665717 42.65994288 180.53212779 44.39360046 182.91740417 C46.30760159 184.20730098 47.93384787 184.70721348 50.1875 185.1875 C51.445625 185.455625 52.70375 185.72375 54 186 C54 188.64 54 191.28 54 194 C36.18 194 18.36 194 0 194 C0 191.36 0 188.72 0 186 C0.63808594 185.79503906 1.27617187 185.59007812 1.93359375 185.37890625 C2.75988281 185.10949219 3.58617187 184.84007812 4.4375 184.5625 C5.26121094 184.29566406 6.08492188 184.02882813 6.93359375 183.75390625 C8.96219588 183.17844506 8.96219588 183.17844506 10 182 C10.10797295 179.81742535 10.14414957 177.63129744 10.15390015 175.44607544 C10.1582824 174.75313381 10.16266465 174.06019218 10.1671797 173.34625232 C10.18061368 171.00703667 10.18675678 168.66785873 10.19287109 166.32861328 C10.20076837 164.65847603 10.20903708 162.9883405 10.21765137 161.31820679 C10.24391217 155.81892537 10.2591818 150.31963617 10.2734375 144.8203125 C10.27879528 142.93054066 10.28417278 141.04076889 10.28956985 139.15099716 C10.31120343 131.29319227 10.3299422 123.43538948 10.34119225 115.57756233 C10.35744444 104.2983035 10.3906474 93.01938848 10.44759309 81.74025929 C10.48622775 73.81923856 10.50581716 65.89831004 10.51111281 57.97719753 C10.51477485 53.24128631 10.52688601 48.50574143 10.55921555 43.76993179 C10.58918306 39.31620922 10.59564886 34.8630768 10.58383179 30.40927505 C10.58361011 28.77215379 10.59199297 27.13500603 10.60948563 25.49797821 C10.63203027 23.26722971 10.62395434 21.0386481 10.60800171 18.80789185 C10.61131186 17.55831758 10.614622 16.30874332 10.61803246 15.02130318 C10.30105848 11.82710796 10.30105848 11.82710796 7.63778114 10.11747551 C5.07037534 9.02981397 2.75519375 8.39359911 0 8 C0 5.36 0 2.72 0 0 Z " fill="#000000" transform="translate(380,459)"/>
<path d="M0 0 C0.76836182 0.4424707 1.53672363 0.88494141 2.32836914 1.34082031 C5.72287129 3.66142542 8.46453075 5.77390921 9.46609497 9.93768311 C10.13095946 15.6172548 9.81884084 21.30246211 9.5625 27 C9.51730318 28.74599052 9.47624768 30.49209345 9.43945312 32.23828125 C9.34078936 36.49498436 9.18581585 40.74624647 9 45 C4.71 45 0.42 45 -4 45 C-4.350625 43.081875 -4.70125 41.16375 -5.0625 39.1875 C-8.19485152 25.78394932 -16.46958445 17.03927746 -27.8125 9.75 C-40.07861347 2.7271238 -54.09321579 0.04042816 -67.9375 3.125 C-79.25619356 6.28779147 -87.77829579 11.67785612 -96 20 C-96.62519531 20.60328125 -97.25039063 21.2065625 -97.89453125 21.828125 C-107.65901987 31.96732312 -112.51628802 45.64577074 -116 59 C-116.23460937 59.89589844 -116.46921875 60.79179688 -116.7109375 61.71484375 C-122.42520249 87.92592884 -118.75875474 116.89675767 -105 140 C-95.49590269 154.05814393 -82.77647302 163.87896948 -66.05859375 167.53125 C-50.3394917 169.94030779 -35.45235331 166.30927917 -22 158 C-13.94734981 152.01158057 -7.3902199 144.95924957 -5 135 C-4.56829528 131.66683799 -4.271812 128.35234798 -4 125 C0.29 125.33 4.58 125.66 9 126 C9.24820164 131.42568791 9.42908715 136.848042 9.54931641 142.27807617 C9.59944741 144.12241181 9.66757774 145.96635305 9.75439453 147.80932617 C10.45477524 163.06526599 10.45477524 163.06526599 6.99755859 167.66308594 C4.40415719 169.51205303 1.93485413 170.77656446 -1 172 C-2.31067975 172.74211933 -3.61609937 173.4936697 -4.9140625 174.2578125 C-6.14497508 174.89212178 -7.38210385 175.51450577 -8.625 176.125 C-9.29813232 176.45773926 -9.97126465 176.79047852 -10.66479492 177.13330078 C-34.55907782 188.5690752 -62.66746906 190.89313835 -88 183 C-89.13050781 182.649375 -90.26101563 182.29875 -91.42578125 181.9375 C-116.23392014 173.21375885 -136.87003634 155.78133515 -148.35180664 132.04296875 C-155.00823805 117.57961161 -158.39275328 103.19915898 -158.3125 87.25 C-158.30831055 86.10837402 -158.30412109 84.96674805 -158.29980469 83.79052734 C-158.18482414 75.17554832 -157.37894892 67.31606714 -155 59 C-154.58234375 57.47826172 -154.58234375 57.47826172 -154.15625 55.92578125 C-146.61870732 31.07138404 -129.10556833 9.40302754 -106.42529297 -3.23168945 C-73.96459456 -20.54554213 -30.85140483 -22.04257078 0 0 Z " fill="#000000" transform="translate(355,470)"/>
<path d="M0 0 C17.82 0 35.64 0 54 0 C54 2.64 54 5.28 54 8 C50.7 8.99 47.4 9.98 44 11 C43.88330389 33.37413893 43.79507915 55.74822784 43.74093914 78.12260914 C43.71513509 88.51096062 43.67994258 98.89912324 43.62280273 109.28735352 C43.57303508 118.33959233 43.54072501 127.39169441 43.52955753 136.44406623 C43.52302749 141.23925332 43.50763463 146.03404916 43.47134972 150.8291111 C43.43749495 155.33942984 43.42692561 159.84919495 43.43446159 164.35962868 C43.43308231 166.0177206 43.42308703 167.6758304 43.40397263 169.33381271 C43.37919703 171.59304593 43.38503547 173.85017223 43.39872742 176.10945129 C43.39181397 178.00788394 43.39181397 178.00788394 43.38476086 179.94466877 C43.69371086 183.16968796 43.69371086 183.16968796 46.36179829 184.88769054 C48.92875285 185.96996102 51.24713201 186.60673314 54 187 C54 189.64 54 192.28 54 195 C36.18 195 18.36 195 0 195 C0 192.36 0 189.72 0 187 C0.62648438 186.82984375 1.25296875 186.6596875 1.8984375 186.484375 C2.71570313 186.24203125 3.53296875 185.9996875 4.375 185.75 C5.59316406 185.40195312 5.59316406 185.40195312 6.8359375 185.046875 C9.60401754 183.70780379 9.93009317 182.86054051 11 180 C11.30140402 176.84549956 11.30140402 176.84549956 11.25396729 173.28186035 C11.25708727 172.60747878 11.26020725 171.9330972 11.26342177 171.23827982 C11.27139575 168.97972771 11.26508058 166.72144472 11.25878906 164.46289062 C11.26149919 162.843194 11.26506025 161.2234986 11.26940918 159.60380554 C11.27853281 155.20512309 11.27498903 150.80653437 11.26865101 146.40785027 C11.2635909 141.80660625 11.26828249 137.20537031 11.27142334 132.60412598 C11.27506295 124.87685707 11.27026402 117.14962639 11.26074219 109.42236328 C11.24985765 100.48596652 11.25338323 91.54966102 11.264395 82.61326647 C11.27346802 74.94353977 11.27475308 67.27384057 11.26951766 59.60411024 C11.26639804 55.02205376 11.2659884 50.44004018 11.27259064 45.85798645 C11.27836367 41.55044592 11.27436797 37.24302317 11.26280212 32.93549538 C11.26015531 31.35364286 11.26092099 29.77178046 11.26532745 28.18993187 C11.27078356 26.03253352 11.26394823 23.8755138 11.25396729 21.71813965 C11.25321323 20.51025536 11.25245918 19.30237106 11.25168228 18.05788422 C11.00865336 15.10513642 10.65338833 13.4305635 9 11 C6.83718718 9.8774351 6.83718718 9.8774351 4.375 9.25 C3.55773437 9.00765625 2.74046875 8.7653125 1.8984375 8.515625 C1.27195312 8.34546875 0.64546875 8.1753125 0 8 C0 5.36 0 2.72 0 0 Z " fill="#000000" transform="translate(549,458)"/>
<path d="M0 0 C2.375 1.875 2.375 1.875 4 4 C4 4.66 4 5.32 4 6 C3.443125 5.855625 2.88625 5.71125 2.3125 5.5625 C-0.11384195 4.97230872 -2.54906345 4.476571 -5 4 C-5.33 4.99 -5.66 5.98 -6 7 C-5.36191406 7.21914063 -4.72382813 7.43828125 -4.06640625 7.6640625 C-1.56334613 8.62467527 0.71030526 9.60217137 3 11 C4.3125 14 4.3125 14 4 17 C2.4375 19.375 2.4375 19.375 0 21 C-2.9375 21.5625 -2.9375 21.5625 -6 21 C-8.875 18.625 -8.875 18.625 -11 16 C-11 15.34 -11 14.68 -11 14 C-8.13275314 14.57344937 -7.1385485 14.8614515 -5 17 C-2.39719432 16.67958603 -2.39719432 16.67958603 0 16 C-0.636397 12.9163615 -0.636397 12.9163615 -2.8125 12.0859375 C-3.534375 11.85132813 -4.25625 11.61671875 -5 11.375 C-8.93048128 10.06951872 -8.93048128 10.06951872 -10 9 C-10.3125 6.125 -10.3125 6.125 -10 3 C-7.1012774 -0.34467992 -4.26951578 -0.62263772 0 0 Z " fill="#000000" transform="translate(337,681)"/>
<path d="M0 0 C2.375 1.875 2.375 1.875 4 4 C4 4.66 4 5.32 4 6 C3.443125 5.855625 2.88625 5.71125 2.3125 5.5625 C-0.11384195 4.97230872 -2.54906345 4.476571 -5 4 C-5.33 4.99 -5.66 5.98 -6 7 C-5.36191406 7.27714844 -4.72382813 7.55429687 -4.06640625 7.83984375 C-3.24011719 8.20207031 -2.41382813 8.56429687 -1.5625 8.9375 C-0.73878906 9.29714844 0.08492188 9.65679688 0.93359375 10.02734375 C3 11 3 11 4 12 C3.75 15.4375 3.75 15.4375 3 19 C-0.48868651 21.32579101 -1.89718519 21.41865457 -6 21 C-8.375 19.75 -8.375 19.75 -10 18 C-10 16.68 -10 15.36 -10 14 C-9.01 14 -8.02 14 -7 14 C-6.01 15.485 -6.01 15.485 -5 17 C-3.35 16.67 -1.7 16.34 0 16 C-0.64067976 12.91240441 -0.64067976 12.91240441 -2.84765625 12.05078125 C-3.57855469 11.80714844 -4.30945313 11.56351563 -5.0625 11.3125 C-5.79597656 11.06113281 -6.52945312 10.80976562 -7.28515625 10.55078125 C-7.85105469 10.36902344 -8.41695313 10.18726563 -9 10 C-9.33 7.69 -9.66 5.38 -10 3 C-6.70949721 -0.03738719 -4.4409569 -0.64763955 0 0 Z " fill="#000000" transform="translate(268,681)"/>
<path d="M0 0 C2.375 1.875 2.375 1.875 4 4 C4 4.66 4 5.32 4 6 C3.443125 5.855625 2.88625 5.71125 2.3125 5.5625 C-0.11384195 4.97230872 -2.54906345 4.476571 -5 4 C-5.33 4.99 -5.66 5.98 -6 7 C-5.36191406 7.27714844 -4.72382813 7.55429687 -4.06640625 7.83984375 C-3.24011719 8.20207031 -2.41382813 8.56429687 -1.5625 8.9375 C-0.73878906 9.29714844 0.08492188 9.65679688 0.93359375 10.02734375 C3 11 3 11 4 12 C4.3125 14.875 4.3125 14.875 4 18 C1.77031412 20.57271448 0.37504726 20.95311909 -3 21.375 C-6.32366465 20.95954192 -7.72815927 20.44659771 -10 18 C-10 16.68 -10 15.36 -10 14 C-9.01 14 -8.02 14 -7 14 C-6.01 15.485 -6.01 15.485 -5 17 C-3.35 16.67 -1.7 16.34 0 16 C-0.33 15.01 -0.66 14.02 -1 13 C-2.84609289 12.20234326 -2.84609289 12.20234326 -5 11.6875 C-7.171875 10.9453125 -7.171875 10.9453125 -9 10 C-10.25 7.0625 -10.25 7.0625 -10 4 C-7.29784114 -0.10728147 -4.77193696 -0.79532283 0 0 Z " fill="#000000" transform="translate(439,681)"/>
<path d="M0 0 C0 0.99 0 1.98 0 3 C-0.99 3.495 -0.99 3.495 -2 4 C-2.33 4.99 -2.66 5.98 -3 7 C-2.01 7 -1.02 7 0 7 C0 7.99 0 8.98 0 10 C-0.99 10 -1.98 10 -3 10 C-3 13.96 -3 17.92 -3 22 C-3.99 22 -4.98 22 -6 22 C-6 18.04 -6 14.08 -6 10 C-8.31 10.33 -10.62 10.66 -13 11 C-13.33 14.63 -13.66 18.26 -14 22 C-14.99 22 -15.98 22 -17 22 C-17 17.05 -17 12.1 -17 7 C-13.37 7 -9.74 7 -6 7 C-6 5.35 -6 3.7 -6 2 C-3 0 -3 0 0 0 Z " fill="#000000" transform="translate(376,680)"/>
<path d="M0 0 C1.32 0.33 2.64 0.66 4 1 C4.969375 0.7525 5.93875 0.505 6.9375 0.25 C10 0 10 0 12.9375 2 C15 5 15 5 15 8.625 C13.55486862 13.50231839 13.55486862 13.50231839 11 15 C7.875 15.25 7.875 15.25 5 15 C4.67 14.67 4.34 14.34 4 14 C3.67 16.31 3.34 18.62 3 21 C2.01 21 1.02 21 0 21 C0 14.07 0 7.14 0 0 Z M4.125 4.125 C2.73933788 6.0140578 2.73933788 6.0140578 3.25 8.625 C3.77745645 10.9312407 3.77745645 10.9312407 5 12 C7.45792029 12.33343551 7.45792029 12.33343551 10 12 C12.33391203 9.21885944 12.33391203 9.21885944 11.625 6.3125 C11.41875 5.549375 11.2125 4.78625 11 4 C7.45033356 2.86559731 7.45033356 2.86559731 4.125 4.125 Z " fill="#000000" transform="translate(478,687)"/>
<path d="M0 0 C0.99 0 1.98 0 3 0 C3 7.26 3 14.52 3 22 C-7 22 -7 22 -11 19 C-11.57039646 14.50812785 -11.85006711 12.25935868 -9.3125 8.5 C-6.60255876 6.74220027 -5.17062465 6.57153721 -2 7 C-1.67 7.33 -1.34 7.66 -1 8 C-0.67 5.36 -0.34 2.72 0 0 Z M-6 10 C-8.2491908 11.82703227 -8.2491908 11.82703227 -8.25 14.5 C-8.2491908 17.17296773 -8.2491908 17.17296773 -6 19 C-2.69316534 18.71016731 -2.69316534 18.71016731 0 17 C0.2500773 14.54190002 0.2500773 14.54190002 0 12 C-0.66 11.34 -1.32 10.68 -2 10 C-3.32 10 -4.64 10 -6 10 Z " fill="#000000" transform="translate(314,680)"/>
<path d="M0 0 C2.83319507 2.60347655 3.8781624 4.25374468 4.5 8.0625 C4 11 4 11 2.375 13.375 C-0.71186432 15.48706506 -2.3282913 15.61195145 -6 15 C-8.375 13.4375 -8.375 13.4375 -10 11 C-10.5625 7.5 -10.5625 7.5 -10 4 C-7.01510153 0.67397028 -4.49084091 -1.0363479 0 0 Z M-5 3 C-5.99 4.485 -5.99 4.485 -7 6 C-4.69 6 -2.38 6 0 6 C-0.33 5.01 -0.66 4.02 -1 3 C-2.32 3 -3.64 3 -5 3 Z M-7 9 C-6.01 10.485 -6.01 10.485 -5 12 C-2.52733235 11.65555119 -2.52733235 11.65555119 0 11 C0.33 10.34 0.66 9.68 1 9 C-1.64 9 -4.28 9 -7 9 Z " fill="#000000" transform="translate(517,687)"/>
<path d="M0 0 C3.375 0.875 3.375 0.875 5.375 2.875 C5.67578125 4.93359375 5.67578125 4.93359375 5.6875 7.3125 C5.70425781 8.09496094 5.72101563 8.87742187 5.73828125 9.68359375 C5.28995786 12.38799614 4.55379946 13.25368679 2.375 14.875 C-0.88496064 15.29116519 -2.96803035 15.1516188 -6 13.875 C-8.10630516 11.28262442 -8.19174997 9.10454793 -8.00390625 5.8203125 C-7.625 3.875 -7.625 3.875 -6.0625 1.3125 C-3.625 -0.125 -3.625 -0.125 0 0 Z M-2.625 2.875 C-3.615 4.36 -3.615 4.36 -4.625 5.875 C-2.315 5.875 -0.005 5.875 2.375 5.875 C1.715 4.885 1.055 3.895 0.375 2.875 C-0.615 2.875 -1.605 2.875 -2.625 2.875 Z M-4.625 8.875 C-4.625 9.535 -4.625 10.195 -4.625 10.875 C-1.655 11.37 -1.655 11.37 1.375 11.875 C1.705 10.885 2.035 9.895 2.375 8.875 C0.065 8.875 -2.245 8.875 -4.625 8.875 Z " fill="#000000" transform="translate(414.625,687.125)"/>
<path d="M0 0 C0.99 0.33 1.98 0.66 3 1 C3.94875 0.7525 4.8975 0.505 5.875 0.25 C9 0 9 0 11.9375 2 C14 5 14 5 14 8.625 C13 12 13 12 11.875 14 C8.85200363 15.61226473 6.2411345 14.67268829 3 14 C2.67 16.31 2.34 18.62 2 21 C1.34 21 0.68 21 0 21 C0 14.07 0 7.14 0 0 Z M5 3 C3.21030974 5.42672567 3.21030974 5.42672567 2 8 C2.99 9.32 3.98 10.64 5 12 C6.65 11.67 8.3 11.34 10 11 C10.6878236 8.64632287 10.6878236 8.64632287 11 6 C10.34 5.01 9.68 4.02 9 3 C7.68 3 6.36 3 5 3 Z " fill="#000000" transform="translate(462,687)"/>
<path d="M0 0 C1.6484375 1.12890625 1.6484375 1.12890625 3 3 C3.29296875 5.91796875 3.29296875 5.91796875 3.1875 9.1875 C3.16042969 10.27417969 3.13335937 11.36085938 3.10546875 12.48046875 C3.07066406 13.31191406 3.03585937 14.14335938 3 15 C1.37536158 15.05395478 -0.24978541 15.09277195 -1.875 15.125 C-2.77992188 15.14820313 -3.68484375 15.17140625 -4.6171875 15.1953125 C-7 15 -7 15 -9 13 C-9.25 10.5 -9.25 10.5 -9 8 C-8.34 7.34 -7.68 6.68 -7 6 C-7.66 5.67 -8.32 5.34 -9 5 C-6.8965142 0.34228145 -5.1466536 -0.50211255 0 0 Z M-5 3 C-5.33 3.99 -5.66 4.98 -6 6 C-4.02 6 -2.04 6 0 6 C-0.33 5.01 -0.66 4.02 -1 3 C-2.32 3 -3.64 3 -5 3 Z M-6 9 C-6 9.99 -6 10.98 -6 12 C-3.52733235 11.65555119 -3.52733235 11.65555119 -1 11 C-0.67 10.34 -0.34 9.68 0 9 C-1.98 9 -3.96 9 -6 9 Z " fill="#000000" transform="translate(386,687)"/>
<path d="M0 0 C2.48038907 3.7205836 2.46337203 5.59796571 2 10 C0.375 12.4375 0.375 12.4375 -2 14 C-5.63632575 14.60605429 -7.28314769 14.47161336 -10.375 12.4375 C-12.62340519 9.06489221 -12.56783945 6.97487617 -12 3 C-8.85540137 -2.24099771 -5.33719896 -1.29125781 0 0 Z M-7 2 C-9.2491908 3.82703227 -9.2491908 3.82703227 -9.25 6.5 C-9.2491908 9.17296773 -9.2491908 9.17296773 -7 11 C-3.69316534 10.71016731 -3.69316534 10.71016731 -1 9 C-0.7499227 6.54190002 -0.7499227 6.54190002 -1 4 C-1.66 3.34 -2.32 2.68 -3 2 C-4.32 2 -5.64 2 -7 2 Z " fill="#000000" transform="translate(286,688)"/>
<path d="M0 0 C0.99 0 1.98 0 3 0 C3.33 3.3 3.66 6.6 4 10 C5.32 10.33 6.64 10.66 8 11 C9.66342837 9.33657163 9.36048097 7.2174291 9.5625 4.9375 C9.64628906 4.01839844 9.73007812 3.09929688 9.81640625 2.15234375 C9.87699219 1.44207031 9.93757813 0.73179687 10 0 C10.99 0 11.98 0 13 0 C13 4.95 13 9.9 13 15 C5.48046875 15.390625 5.48046875 15.390625 3 15 C0.5788313 12.78755274 0.04909071 11.46865264 -0.29296875 8.203125 C-0.25816406 7.22859375 -0.22335937 6.2540625 -0.1875 5.25 C-0.16042969 4.26515625 -0.13335937 3.2803125 -0.10546875 2.265625 C-0.07066406 1.51796875 -0.03585937 0.7703125 0 0 Z " fill="#000000" transform="translate(343,687)"/>
<path d="M0 0 C2 2 2 2 2 5 C1.01 5 0.02 5 -1 5 C-1 4.34 -1 3.68 -1 3 C-3.31 3 -5.62 3 -8 3 C-7.67 5.31 -7.34 7.62 -7 10 C-5.35 10 -3.7 10 -2 10 C-1.67 9.34 -1.34 8.68 -1 8 C-0.01 8 0.98 8 2 8 C1.6875 9.875 1.6875 9.875 1 12 C-2.49565336 14.33043558 -3.8865729 14.58763244 -8 14 C-10.4375 11.9375 -10.4375 11.9375 -12 9 C-12 5.19715329 -11.7968187 2.98069994 -9.375 0 C-5.95223815 -1.44116288 -3.55394628 -0.85557966 0 0 Z " fill="#000000" transform="translate(403,688)"/>
<path d="M0 0 C0.928125 0.20625 1.85625 0.4125 2.8125 0.625 C3.1425 1.945 3.4725 3.265 3.8125 4.625 C2.8225 4.625 1.8325 4.625 0.8125 4.625 C0.8125 3.965 0.8125 3.305 0.8125 2.625 C-0.1775 3.285 -1.1675 3.945 -2.1875 4.625 C-0.2075 5.615 1.7725 6.605 3.8125 7.625 C3.9375 10 3.9375 10 3.8125 12.625 C3.1525 13.285 2.4925 13.945 1.8125 14.625 C-1.8125 14.25 -1.8125 14.25 -5.1875 13.625 C-5.5175 12.305 -5.8475 10.985 -6.1875 9.625 C-5.1975 9.625 -4.2075 9.625 -3.1875 9.625 C-3.1875 10.285 -3.1875 10.945 -3.1875 11.625 C-1.8675 11.625 -0.5475 11.625 0.8125 11.625 C0.8125 10.635 0.8125 9.645 0.8125 8.625 C-0.156875 8.480625 -1.12625 8.33625 -2.125 8.1875 C-5.1875 7.625 -5.1875 7.625 -6.1875 6.625 C-6.4375 4.1875 -6.4375 4.1875 -6.1875 1.625 C-3.1875 -0.375 -3.1875 -0.375 0 0 Z " fill="#000000" transform="translate(538.1875,687.375)"/>
<path d="M0 0 C0.66 0 1.32 0 2 0 C2.06058594 0.62648438 2.12117188 1.25296875 2.18359375 1.8984375 C2.26738281 2.71570313 2.35117187 3.53296875 2.4375 4.375 C2.51871094 5.18710937 2.59992188 5.99921875 2.68359375 6.8359375 C2.89090114 9.04272805 2.89090114 9.04272805 4 11 C5.32 11 6.64 11 8 11 C8.33 7.37 8.66 3.74 9 0 C9.99 0 10.98 0 12 0 C12 4.95 12 9.9 12 15 C10.39125 15.04125 8.7825 15.0825 7.125 15.125 C6.22007812 15.14820313 5.31515625 15.17140625 4.3828125 15.1953125 C2 15 2 15 0 13 C-0.1953125 9.9609375 -0.1953125 9.9609375 -0.125 6.375 C-0.10695313 5.18648437 -0.08890625 3.99796875 -0.0703125 2.7734375 C-0.04710937 1.85820313 -0.02390625 0.94296875 0 0 Z " fill="#000000" transform="translate(446,687)"/>
<path d="M0 0 C0.99 0 1.98 0 3 0 C3 7.26 3 14.52 3 22 C2.01 22 1.02 22 0 22 C0 14.74 0 7.48 0 0 Z " fill="#000000" transform="translate(495,680)"/>
<path d="M0 0 C0.99 0 1.98 0 3 0 C3 7.26 3 14.52 3 22 C2.01 22 1.02 22 0 22 C0 14.74 0 7.48 0 0 Z " fill="#000000" transform="translate(291,680)"/>
<path d="M0 0 C2.64 0 5.28 0 8 0 C8 0.99 8 1.98 8 3 C6.68 3.33 5.36 3.66 4 4 C3.67 7.63 3.34 11.26 3 15 C2.01 15 1.02 15 0 15 C0 10.05 0 5.1 0 0 Z " fill="#000000" transform="translate(523,687)"/>
<path d="M0 0 C0.99 0 1.98 0 3 0 C3 4.95 3 9.9 3 15 C2.01 15 1.02 15 0 15 C0 10.05 0 5.1 0 0 Z " fill="#000000" transform="translate(502,687)"/>
<path d="M0 0 C0.99 0 1.98 0 3 0 C3 4.95 3 9.9 3 15 C2.01 15 1.02 15 0 15 C0 10.05 0 5.1 0 0 Z " fill="#000000" transform="translate(297,687)"/>
<path d="M0 0 C0.99 0.33 1.98 0.66 3 1 C3 1.99 3 2.98 3 4 C1.68 4 0.36 4 -1 4 C-0.67 2.68 -0.34 1.36 0 0 Z " fill="#000000" transform="translate(502,681)"/>
<path d="M0 0 C1.32 0.33 2.64 0.66 4 1 C3.67 1.99 3.34 2.98 3 4 C2.01 4 1.02 4 0 4 C0 2.68 0 1.36 0 0 Z " fill="#000000" transform="translate(297,681)"/>
</svg>
